<?xml version="1.0" standalone="no"?>
<!DOCTYPE svg PUBLIC "-//W3C//DTD SVG 20010904//EN"
 "http://www.w3.org/TR/2001/REC-SVG-20010904/DTD/svg10.dtd">
<svg version="1.0" xmlns="http://www.w3.org/2000/svg"
 width="214.000000pt" height="214.000000pt" viewBox="0 0 214.000000 214.000000"
 preserveAspectRatio="xMidYMid meet">
<metadata>
Created by potrace 1.11, written by Peter Selinger 2001-2013
</metadata>
<g transform="translate(0.000000,214.000000) scale(0.100000,-0.100000)"
fill="#000000" stroke="none">
<path d="M980 1953 c-22 -9 -35 -24 -61 -72 -49 -90 -65 -118 -102 -179 -20
-35 -37 -67 -37 -73 0 -5 -4 -9 -9 -9 -5 0 -12 -11 -15 -25 -4 -14 -11 -25
-16 -25 -6 0 -10 -5 -10 -10 0 -9 -12 -31 -83 -153 -11 -18 -29 -50 -40 -72
-12 -22 -25 -42 -28 -45 -3 -3 -28 -45 -55 -95 -28 -49 -61 -108 -74 -130 -12
-22 -34 -60 -48 -85 -14 -25 -32 -56 -41 -70 -9 -14 -26 -42 -36 -62 -22 -42
-30 -45 -71 -24 -46 24 -68 3 -155 -148 -74 -129 -79 -140 -79 -196 0 -57 2
-60 37 -87 21 -15 39 -31 41 -35 2 -5 12 -8 23 -8 10 0 19 -4 19 -9 0 -14 228
-125 320 -156 47 -15 92 -30 100 -33 18 -6 32 -9 85 -18 22 -3 42 -9 45 -13 3
-3 19 -7 35 -7 17 -1 53 -5 80 -9 74 -10 420 -6 420 5 0 1 9 3 20 5 21 3 85
14 117 20 35 7 193 56 233 73 83 35 255 124 255 133 0 5 5 9 10 9 6 0 25 10
43 23 66 46 92 72 91 92 -2 23 -22 77 -32 85 -4 3 -18 25 -31 50 -13 25 -48
87 -78 138 -51 86 -56 92 -87 92 -17 0 -38 -6 -45 -12 -10 -11 -16 -8 -31 12
-11 14 -25 36 -32 50 -7 14 -17 28 -23 32 -5 4 -6 8 -1 8 5 0 1 9 -9 20 -10
11 -14 20 -9 20 5 0 4 4 -1 8 -9 6 -72 109 -117 192 -8 14 -25 43 -39 65 -13
22 -22 42 -21 44 2 2 -2 7 -10 12 -7 5 -13 12 -14 16 -1 17 -28 63 -36 63 -5
0 -7 4 -4 9 3 5 -3 20 -14 34 -11 14 -20 30 -20 35 0 6 -6 17 -13 24 -7 7 -26
38 -42 68 -16 30 -34 62 -41 70 -6 8 -25 40 -41 70 -67 122 -87 155 -97 162
-7 5 -7 8 -1 8 7 0 7 3 0 8 -6 4 -19 24 -30 45 -11 21 -24 42 -30 47 -16 12
-49 19 -65 13z"/>
</g>
</svg>
